PathFileType  4	(X/Y/Z) C:\Users\antoi\Documents\MyRepositories\mobilecap\ResultsAnalysis
DataRate	CameraRate	NumFrames	NumMarkers	Units	OrigDataRate	OrigDataStartFrame	OrigNumFrames
100.0	100.0	4	55	mm	100.0	1	501
Frame#	Time	r_knee			r_shank_antsup			r_ankle			r_calc			r_5meta			r_toe			L_knee			L_shank_antsup			L_ankle			L_calc			L_5meta			L_toe			r_mknee			r_mankle			L_mknee			L_mankle			r_sh2			r_sh3			r_sh4			L_sh2			L_sh3			r_thigh1			r_thigh2			r_thigh3			r_thigh4			r_thigh5			L_thigh1			L_thigh2			L_thigh3			L_thigh4			r.ASIS			r.PSIS			L.ASIS			L.PSIS			C7			R_Shoulder			L_Shoulder			R_Sternum			L_Sternum			R_humerus			R_elbow_med			R_elbow_lat			R_forearm			R_wrist_radius			R_wrist_ulna			L_humerus			L_elbow_med			L_elbow_lat			L_forearm			L_wrist_radius			L_wrist_ulna			R_HJC			L_HJC			R_HJC_reg			L_HJC_reg			
		X1	Y1	Z1	X2	Y2	Z2	X3	Y3	Z3	X4	Y4	Z4	X5	Y5	Z5	X6	Y6	Z6	X7	Y7	Z7	X8	Y8	Z8	X9	Y9	Z9	X10	Y10	Z10	X11	Y11	Z11	X12	Y12	Z12	X13	Y13	Z13	X14	Y14	Z14	X15	Y15	Z15	X16	Y16	Z16	X17	Y17	Z17	X18	Y18	Z18	X19	Y19	Z19	X20	Y20	Z20	X21	Y21	Z21	X22	Y22	Z22	X23	Y23	Z23	X24	Y24	Z24	X25	Y25	Z25	X26	Y26	Z26	X27	Y27	Z27	X28	Y28	Z28	X29	Y29	Z29	X30	Y30	Z30	X31	Y31	Z31	X32	Y32	Z32	X33	Y33	Z33	X34	Y34	Z34	X35	Y35	Z35	X36	Y36	Z36	X37	Y37	Z37	X38	Y38	Z38	X39	Y39	Z39	X40	Y40	Z40	X41	Y41	Z41	X42	Y42	Z42	X43	Y43	Z43	X44	Y44	Z44	X45	Y45	Z45	X46	Y46	Z46	X47	Y47	Z47	X48	Y48	Z48	X49	Y49	Z49	X50	Y50	Z50	X51	Y51	Z51	X52	Y52	Z52	X53	Y53	Z53	X54	Y54	Z54	X55	Y55	Z55	

1	0.00000000	-258.00088	475.11669	-419.67327	-234.57643	421.93744	-412.82138	-256.71168	86.69011	-387.17542	-308.64795	53.53014	-429.60034	-147.51161	42.64662	-354.12705	-109.44347	60.94011	-407.00220	-232.31193	473.31741	-774.11206	-202.78698	393.19022	-771.07180	-251.94507	94.64115	-816.26984	-308.66612	50.47097	-779.33040	-147.62718	44.89797	-846.20392	-101.22672	59.32716	-789.91620	-251.04092	448.19890	-547.53727	-240.61535	96.53642	-464.79324	-240.49679	447.63342	-647.96869	-240.81456	97.14143	-736.00360	-242.53288	311.49624	-389.07095	-306.64998	433.60979	-393.04175	-322.72374	315.95408	-377.93521	-279.66993	416.97437	-815.14630	-285.58804	295.75145	-837.72285	-166.52554	720.17100	-395.63844	-174.55037	608.18938	-405.01754	-237.67118	588.62321	-396.69229	-277.71032	726.90449	-408.76178	-282.65646	610.69782	-419.94356	-141.12501	748.57270	-792.29132	-147.24938	607.96295	-772.97291	-252.60255	748.78903	-808.38220	-260.59929	613.67189	-780.41340	-107.33719	919.78223	-479.55975	-314.68878	943.32719	-564.98926	-98.32239	925.71467	-704.37877	-309.14658	946.35989	-643.96284	-261.58101	1385.46874	-597.65543	-212.26810	1358.86950	-453.71036	-218.44011	1357.75488	-735.39305	-133.78666	1329.39160	-572.70166	-134.02675	1328.74220	-612.25969	-188.20211	1249.36719	-388.41408	-258.88217	1040.83302	-396.24973	-237.91205	1057.01953	-338.75882	-181.52797	995.14733	-297.82702	-142.17226	856.97785	-263.68364	-177.88709	855.14301	-248.84091	-213.53569	1258.83728	-811.22639	-250.11966	1037.86279	-797.84837	-239.43815	1062.21179	-856.56597	-182.21145	981.17766	-897.20671	-137.66226	860.47687	-915.22701	-174.59438	856.03446	-932.20440	-186.34270	829.81631	-493.88145	-176.88350	837.84020	-701.01782	-175.97508	847.51385	-518.15526	-165.58323	853.20027	-666.23359	
2	0.01000000	-258.07753	475.14116	-419.72361	-234.62296	421.88541	-412.80938	-256.71474	86.72087	-387.08580	-308.66231	53.51235	-429.62666	-147.52763	42.68190	-354.06403	-109.38635	60.99186	-406.96363	-232.36059	473.29765	-774.12118	-202.82496	393.18616	-771.10172	-251.93423	94.63023	-816.27381	-308.72637	50.48192	-779.38002	-147.62691	44.87460	-846.20233	-101.22769	59.31186	-789.90298	-251.05532	448.19649	-547.52697	-240.63160	96.56025	-464.96097	-240.50317	447.54969	-647.94611	-240.72254	97.27493	-736.00236	-242.54624	311.38547	-389.02311	-308.23945	431.78593	-393.30664	-323.21919	315.53631	-378.25398	-279.75797	416.94658	-815.22050	-285.67214	295.65948	-837.61542	-166.57786	720.31570	-395.66780	-174.57372	608.16316	-405.00585	-237.66284	588.62211	-396.79482	-277.70763	726.87708	-408.75495	-282.78289	610.72829	-420.02817	-141.27376	748.55265	-792.21345	-147.30502	607.93634	-772.94039	-252.68879	748.77741	-808.39784	-260.66689	613.67199	-780.42494	-107.45680	919.79804	-479.64235	-314.78194	943.38531	-565.01988	-98.42227	925.73899	-704.43098	-309.17639	946.31829	-643.88141	-261.73778	1385.41224	-597.59002	-212.34181	1358.90230	-453.51015	-218.53538	1357.70530	-735.38899	-133.84743	1329.40110	-572.69296	-134.09534	1328.72122	-612.22139	-188.30652	1249.43199	-388.38086	-258.77658	1040.56806	-396.17183	-237.98155	1057.02337	-338.55434	-181.61698	995.14535	-297.77426	-142.23887	856.92902	-263.63776	-178.05212	855.10282	-248.84478	-213.49164	1258.73893	-811.04377	-250.14482	1037.75596	-797.67411	-239.42428	1062.19328	-856.55099	-182.21941	981.12785	-897.14339	-137.73473	860.38292	-915.07936	-174.68648	855.89635	-932.04415	-186.40656	829.83692	-493.90042	-176.98729	837.84886	-701.03908	-176.18810	847.67930	-518.20782	-165.66416	853.18570	-666.26421	
3	0.02000000	-258.10243	475.15069	-419.71641	-234.66284	421.86924	-412.79111	-256.72981	86.55350	-387.24679	-308.65617	53.51437	-429.67567	-147.53015	42.65538	-354.08310	-109.38740	60.99903	-407.02540	-232.39746	473.27631	-774.13448	-202.86895	393.20171	-771.09511	-251.93851	94.61518	-816.28967	-308.69892	50.47969	-779.39063	-147.62818	44.85575	-846.21161	-101.22403	59.29170	-789.89944	-251.08102	448.19691	-547.51924	-240.64581	96.54501	-465.02962	-240.51266	447.52234	-647.93266	-240.69844	97.31340	-736.00030	-242.62064	311.26190	-388.98181	-308.18315	431.85650	-393.29941	-323.37489	315.42118	-378.31252	-279.81937	416.93018	-815.24657	-285.73982	295.60986	-837.61234	-166.65710	720.25196	-395.75107	-174.62905	608.15450	-405.01492	-237.72486	588.61970	-396.75912	-277.75246	726.87247	-408.72381	-282.82762	610.74543	-420.02447	-141.37029	748.54670	-792.13954	-147.36325	607.89284	-772.87687	-252.76133	748.75617	-808.42135	-260.71634	613.65536	-780.42719	-107.52923	919.83207	-479.68663	-314.84891	943.40125	-564.94870	-98.50881	925.76394	-704.47514	-309.24945	946.26273	-643.81264	-261.82768	1385.40239	-597.61041	-212.42692	1358.89339	-453.42764	-218.60046	1357.67150	-735.33327	-133.89298	1329.38100	-572.68303	-134.15200	1328.69866	-612.17735	-188.39106	1249.42121	-388.36158	-258.87149	1040.41168	-396.10728	-238.09539	1057.01564	-338.40699	-181.68839	995.13297	-297.73332	-142.37828	856.89879	-263.62493	-178.18646	855.10734	-248.80120	-213.43115	1258.65568	-810.88805	-250.17946	1037.73132	-797.61968	-239.41044	1062.16764	-856.53487	-182.23053	981.08438	-897.08058	-137.82098	860.28016	-914.94294	-174.85209	855.65733	-931.70501	-186.42191	829.85809	-493.88328	-177.07853	837.84847	-701.02620	-176.27878	847.79622	-518.17922	-165.76622	853.16850	-666.24069	
4	0.03000000	-258.10498	475.14735	-419.69218	-234.68151	421.87996	-412.75945	-256.76309	86.23600	-387.59336	-308.63521	53.50972	-429.69978	-147.52620	42.60695	-354.12346	-109.39311	60.96657	-407.01554	-232.42590	473.25875	-774.14942	-202.91189	393.22450	-771.06626	-251.95971	94.62039	-816.32930	-308.65092	50.46605	-779.40356	-147.63422	44.84523	-846.22714	-101.21967	59.28276	-789.90589	-251.16543	448.21141	-547.58277	-240.66270	96.52951	-465.07417	-240.58816	447.65318	-647.88891	-240.67624	97.36001	-735.99034	-242.72704	311.15177	-388.95683	-307.10004	433.10980	-393.11802	-323.20980	315.60356	-378.14056	-279.86589	416.92286	-815.23718	-285.78985	295.62561	-837.67554	-166.70987	720.04447	-395.85401	-174.69994	608.14620	-405.02404	-237.77928	588.58790	-396.67793	-277.79243	726.89937	-408.65885	-282.84839	610.73171	-419.98203	-141.43857	748.55567	-792.08782	-147.41833	607.86500	-772.84154	-252.82039	748.72799	-808.43900	-260.77088	613.63117	-780.41974	-107.56517	919.86264	-479.70488	-314.90060	943.37999	-564.81122	-98.59089	925.78704	-704.50305	-309.37919	946.22044	-643.78473	-261.89360	1385.41011	-597.56408	-212.54564	1358.83641	-453.41567	-218.64098	1357.65630	-735.23203	-133.93773	1329.34849	-572.67038	-134.20319	1328.69073	-612.12408	-188.45901	1249.36889	-388.33688	-259.06889	1040.34089	-396.06570	-238.22565	1056.99333	-338.30669	-181.76266	995.11628	-297.69522	-142.55250	856.84559	-263.61060	-178.31844	855.07001	-248.73132	-213.38517	1258.61013	-810.78791	-250.20993	1037.75280	-797.61237	-239.41264	1062.13891	-856.51164	-182.25301	981.04339	-897.02335	-137.90468	860.19415	-914.81954	-175.01251	855.44330	-931.30096	-186.42232	829.86825	-493.85598	-177.17039	837.84814	-701.00342	-176.25610	847.83802	-518.09744	-165.90301	853.16387	-666.17673	
